HIERARCHY
ROOT joint_Root
{
	OFFSET 0.0 0.0 0.0
	CHANNELS 6 Xposition Yposition Zposition Zrotation Xrotation Yrotation 
	JOINT Hips
	{
		OFFSET -0.726466 93.3139 -2.00062
		CHANNELS 6 Xposition Yposition Zposition Zrotation Xrotation Yrotation 
		JOINT Spine
		{
			OFFSET 15.7357 0.0 0.0
			CHANNELS 6 Xposition Yposition Zposition Zrotation Xrotation Yrotation 
			JOINT Chest
			{
				OFFSET 8.98455 -0.406207 0.0
				CHANNELS 6 Xposition Yposition Zposition Zrotation Xrotation Yrotation 
				JOINT Neck
				{
					OFFSET 16.3773 0.0 0.0
					CHANNELS 6 Xposition Yposition Zposition Zrotation Xrotation Yrotation 
					JOINT Head
					{
						OFFSET 6.45672 0.0 0.0
						CHANNELS 6 Xposition Yposition Zposition Zrotation Xrotation Yrotation 
						End Site
						{
							OFFSET 0.0 0.0 0.0
						}
					}
				}
				JOINT Shoulder_L
				{
					OFFSET 12.9942 -0.242716 4.98039
					CHANNELS 6 Xposition Yposition Zposition Zrotation Xrotation Yrotation 
					JOINT UpperArm_L
					{
						OFFSET 5.34809 0.0 0.0
						CHANNELS 6 Xposition Yposition Zposition Zrotation Xrotation Yrotation 
						JOINT LowerArm_L
						{
							OFFSET 24.3286 1.87007e-05 0.0
							CHANNELS 6 Xposition Yposition Zposition Zrotation Xrotation Yrotation 
							JOINT Hand_L
							{
								OFFSET 22.2916 0.0 0.0
								CHANNELS 6 Xposition Yposition Zposition Zrotation Xrotation Yrotation 
								End Site
								{
									OFFSET 0.0 0.0 0.0
								}
							}
						}
					}
				}
				JOINT Shoulder_R
				{
					OFFSET 12.9945 -0.242716 -4.98039
					CHANNELS 6 Xposition Yposition Zposition Zrotation Xrotation Yrotation 
					JOINT UpperArm_R
					{
						OFFSET -5.34813 0.0 0.0
						CHANNELS 6 Xposition Yposition Zposition Zrotation Xrotation Yrotation 
						JOINT LowerArm_R
						{
							OFFSET -24.3289 0.000322201 0.0
							CHANNELS 6 Xposition Yposition Zposition Zrotation Xrotation Yrotation 
							JOINT Hand_R
							{
								OFFSET -22.2915 -0.000108084 0.0
								CHANNELS 6 Xposition Yposition Zposition Zrotation Xrotation Yrotation 
								End Site
								{
									OFFSET 0.0 0.0 0.0
								}
							}
						}
					}
				}
			}
		}
		JOINT UpperLeg_L
		{
			OFFSET -2.19248 -6.46944 0.0
			CHANNELS 6 Xposition Yposition Zposition Zrotation Xrotation Yrotation 
			JOINT LowerLeg_L
			{
				OFFSET 39.0811 0.0 -1.23785e-05
				CHANNELS 6 Xposition Yposition Zposition Zrotation Xrotation Yrotation 
				JOINT Foot_L
				{
					OFFSET 40.9854 0.0 -1.26872e-05
					CHANNELS 6 Xposition Yposition Zposition Zrotation Xrotation Yrotation 
					JOINT Toes_L
					{
						OFFSET 11.7543 0.0 0.0
						CHANNELS 6 Xposition Yposition Zposition Zrotation Xrotation Yrotation 
						End Site
						{
							OFFSET 0.0 0.0 0.0
						}
					}
				}
			}
		}
		JOINT UpperLeg_R
		{
			OFFSET -2.19251 6.46944 0.0
			CHANNELS 6 Xposition Yposition Zposition Zrotation Xrotation Yrotation 
			JOINT LowerLeg_R
			{
				OFFSET -39.0811 -0.00228153 -0.0401928
				CHANNELS 6 Xposition Yposition Zposition Zrotation Xrotation Yrotation 
				JOINT Foot_R
				{
					OFFSET -40.9854 0.0 0.0
					CHANNELS 6 Xposition Yposition Zposition Zrotation Xrotation Yrotation 
					JOINT Toes_R
					{
						OFFSET -11.7543 0.0 0.0
						CHANNELS 6 Xposition Yposition Zposition Zrotation Xrotation Yrotation 
						End Site
						{
							OFFSET 0.0 0.0 0.0
						}
					}
				}
			}
		}
	}
}
MOTION
Frames:	4
Frame Time:	0.0333333
0.000000 0.000000 0.000000 0.000000 0.000000 -0.000000 149.605000 86.138000 -124.270000 87.992900 -13.039400 4.209870 15.735700 0.000005 -0.000001 108.486000 79.461300 -110.118000 8.984550 -0.406207 -0.000000 12.379100 6.556750 -3.977310 16.377300 -0.000001 -0.000001 7.140450 1.749790 0.742504 6.456720 -0.000001 -0.000000 1.719720 -2.220150 0.016271 12.994200 -0.242716 4.980390 -89.061200 -1.992120 -64.760800 5.348090 -0.000007 -0.000001 -66.298900 21.730200 0.659910 24.328600 0.000019 0.000005 5.033750 7.314710 -34.678200 22.291600 -0.000001 0.000005 1.563470 5.557520 -9.065890 12.994500 -0.242716 -4.980390 89.658300 1.133560 -73.227600 -5.348130 -0.000001 -0.000004 -37.683700 31.388400 -43.321200 -24.328900 0.000322 -0.000009 -1.868280 -2.119110 -41.393400 -22.291500 -0.000108 -0.000004 5.516390 5.552520 -8.824890 -2.192480 -6.469440 -0.000000 -177.178000 -17.400900 -28.855800 39.081100 -0.000007 -0.000012 -0.352173 0.301200 49.461700 40.985400 -0.000006 -0.000013 -0.950049 -10.277700 -66.348800 11.754300 -0.000000 0.000003 -0.232348 -0.291915 -16.407200 -2.192510 6.469440 -0.000001 168.199000 6.123210 -176.590000 -39.081100 -0.002282 -0.040193 0.303368 -0.196275 56.818700 -40.985400 0.000008 0.000006 3.354810 -2.825970 -45.852600 -11.754300 -0.000006 -0.000006 -0.032709 -0.229622 -25.987000
0.000000 0.000000 0.000000 0.000000 0.000000 -0.000000 150.114000 86.908100 -120.260000 87.846100 -11.706000 4.406690 15.735700 0.000005 -0.000001 105.721000 79.854700 -107.140000 8.984550 -0.406207 -0.000000 11.873100 5.400330 -3.401000 16.377300 -0.000001 -0.000001 7.278080 1.699650 0.741138 6.456720 -0.000001 -0.000000 2.120930 -1.502390 0.232385 12.994200 -0.242716 4.980390 -88.967100 -2.268960 -65.515600 5.348090 -0.000007 -0.000001 -64.761100 23.971400 -4.362900 24.328600 0.000019 0.000005 4.415040 5.987350 -36.510300 22.291600 -0.000001 0.000005 1.868020 5.561580 -9.263620 12.994500 -0.242716 -4.980390 89.540500 1.464580 -72.579400 -5.348130 -0.000001 -0.000004 -41.482700 34.346700 -37.605100 -24.328900 0.000322 -0.000009 -0.876639 -1.075990 -39.121400 -22.291500 -0.000108 -0.000004 4.648450 5.549890 -8.700120 -2.192480 -6.469440 -0.000000 -177.304000 -15.643900 -25.114100 39.081100 -0.000007 -0.000012 -0.370732 0.328657 48.443600 40.985400 -0.000006 -0.000013 -1.203070 -10.786000 -68.988300 11.754300 -0.000000 0.000003 -0.343271 -0.434610 -16.321300 -2.192510 6.469440 -0.000001 169.061000 7.167680 178.546000 -39.081100 -0.002282 -0.040193 0.339459 -0.165952 63.734500 -40.985400 0.000008 0.000006 5.245240 -5.553970 -44.408700 -11.754300 -0.000006 -0.000006 -0.022660 -0.181598 -23.997900
0.000000 0.000000 0.000000 0.000000 0.000000 -0.000000 150.453000 87.870900 -116.488000 87.215500 -9.893550 4.458520 15.735700 0.000005 -0.000001 101.763000 80.296300 -102.748000 8.984550 -0.406207 -0.000000 11.287300 3.895380 -2.355750 16.377300 -0.000001 -0.000001 7.550270 1.596640 0.673480 6.456720 -0.000001 -0.000000 2.634850 -0.666713 0.380146 12.994200 -0.242716 4.980390 -88.949600 -2.392570 -66.288900 5.348090 -0.000007 -0.000001 -62.519800 25.471000 -9.259830 24.328600 0.000019 0.000005 4.282060 5.287110 -39.097800 22.291600 -0.000001 0.000005 2.378660 5.566180 -9.494790 12.994500 -0.242716 -4.980390 89.335000 2.008970 -71.683500 -5.348130 -0.000001 -0.000004 -45.321100 36.460000 -31.421300 -24.328900 0.000322 -0.000009 -0.049972 -0.064283 -37.028700 -22.291500 -0.000108 -0.000004 4.036360 5.547820 -8.603690 -2.192480 -6.469440 -0.000000 -176.983000 -13.710100 -21.060700 39.081100 -0.000007 -0.000012 -0.319743 0.307263 46.141000 40.985400 -0.000006 -0.000013 -0.851268 -11.062200 -70.643100 11.754300 -0.000000 0.000003 -0.694114 -0.885424 -16.040000 -2.192510 6.469440 -0.000001 170.344000 9.805460 174.021000 -39.081100 -0.002282 -0.040193 0.359877 -0.146320 67.698700 -40.985400 0.000008 0.000006 4.826160 -4.867380 -47.000700 -11.754300 -0.000006 -0.000006 -0.023138 -0.184089 -24.100700
0.000000 0.000000 0.000000 0.000000 0.000000 -0.000000 150.676000 88.923500 -112.912000 86.426000 -7.574250 4.380910 15.735700 0.000005 -0.000001 96.304000 80.745700 -96.764500 8.984550 -0.406207 -0.000000 10.643700 2.006480 -1.107390 16.377300 -0.000001 -0.000001 8.069340 1.337270 0.503208 6.456720 -0.000001 -0.000000 3.201260 0.282643 0.545899 12.994200 -0.242716 4.980390 -88.879700 -2.635870 -66.961600 5.348090 -0.000007 -0.000001 -59.912300 26.651500 -14.170100 24.328600 0.000019 0.000005 4.031270 4.561430 -41.549400 22.291600 -0.000001 0.000005 3.154940 5.567950 -9.580790 12.994500 -0.242716 -4.980390 89.161800 2.371740 -70.530600 -5.348130 -0.000001 -0.000004 -49.689200 37.227700 -24.696900 -24.328900 0.000322 -0.000009 0.553194 0.786735 -35.177500 -22.291500 -0.000108 -0.000004 3.393470 5.548320 -8.626270 -2.192480 -6.469440 -0.000000 -176.457000 -12.381100 -16.887000 39.081100 -0.000007 -0.000012 -0.220545 0.238049 42.814800 40.985400 -0.000006 -0.000013 0.429384 -10.395400 -71.448500 11.754300 -0.000000 0.000003 -1.116790 -1.425390 -15.699200 -2.192510 6.469440 -0.000001 172.064000 13.454200 169.733000 -39.081100 -0.002282 -0.040193 0.375935 -0.148945 68.222000 -40.985400 0.000008 0.000006 2.509080 -3.815950 -48.109700 -11.754300 -0.000006 -0.000006 -0.022880 -0.182747 -24.045300
